{
  "accessors": [
    {
      "bufferView": 2,
      "componentType": 5126,
      "count": 482,
      "max": [
        1.0,
        0.8210470080375671,
        0.9313769936561584
      ],
      "min": [
        -1.0,
        -0.8210470080375671,
        -0.9313769936561584
      ],
      "type": "VEC3"
    },
    {
      "bufferView": 2,
      "byteOffset": 5784,
      "componentType": 5126,
      "count": 482,
      "max": [
        0.998694896697998,
        0.9986288547515869,
        0.9999433755874634
      ],
      "min": [
        -0.998694896697998,
        -0.9997736215591431,
        -0.999995231628418
      ],
      "type": "VEC3"
    },
    {
      "bufferView": 3,
      "componentType": 5126,
      "count": 482,
      "max": [
        0.7657480239868164,
        0.9999719858169556,
        0.9999169707298279,
        1.0
      ],
      "min": [
        -0.7657470107078552,
        -0.9999949932098389,
        -0.9999470114707947,
        1.0
      ],
      "type": "VEC4"
    },
    {
      "bufferView": 1,
      "componentType": 5126,
      "count": 482,
      "max": [
        0.9823349714279175,
        0.9863449931144714
      ],
      "min": [
        0.019205300137400627,
        0.2930789887905121
      ],
      "type": "VEC2"
    },
    {
      "bufferView": 0,
      "componentType": 5125,
      "count": 2316,
      "type": "SCALAR"
    },
    {
      "bufferView": 2,
      "byteOffset": 11568,
      "componentType": 5126,
      "count": 144,
      "max": [
        -0.24967899918556213,
        0.22305600345134735,
        0.9111769795417786
      ],
      "min": [
        -0.6180170178413391,
        -0.13302700221538544,
        0.5964779853820801
      ],
      "type": "VEC3"
    },
    {
      "bufferView": 2,
      "byteOffset": 13296,
      "componentType": 5126,
      "count": 144,
      "max": [
        1.0,
        1.0,
        0.9594957828521729
      ],
      "min": [
        -1.0,
        -1.0,
        -0.9594957828521729
      ],
      "type": "VEC3"
    },
    {
      "bufferView": 3,
      "byteOffset": 7712,
      "componentType": 5126,
      "count": 144,
      "max": [
        0.6265190243721008,
        0.825423002243042,
        1.0,
        -1.0
      ],
      "min": [
        -0.9832249879837036,
        -1.0,
        -1.0,
        -1.0
      ],
      "type": "VEC4"
    },
    {
      "bufferView": 1,
      "byteOffset": 3856,
      "componentType": 5126,
      "count": 144,
      "max": [
        0.9962630271911621,
        0.23513300716876984
      ],
      "min": [
        0.005038239993155003,
        0.039638299494981766
      ],
      "type": "VEC2"
    },
    {
      "bufferView": 0,
      "byteOffset": 9264,
      "componentType": 5125,
      "count": 540,
      "type": "SCALAR"
    },
    {
      "bufferView": 2,
      "byteOffset": 15024,
      "componentType": 5126,
      "count": 144,
      "max": [
        0.6180059909820557,
        0.22305600345134735,
        0.9111769795417786
      ],
      "min": [
        0.24954700469970703,
        -0.13302700221538544,
        0.5964779853820801
      ],
      "type": "VEC3"
    },
    {
      "bufferView": 2,
      "byteOffset": 16752,
      "componentType": 5126,
      "count": 144,
      "max": [
        1.0,
        1.0,
        0.9595190286636353
      ],
      "min": [
        -1.0,
        -1.0,
        -0.9595192670822144
      ],
      "type": "VEC3"
    },
    {
      "bufferView": 3,
      "byteOffset": 10016,
      "componentType": 5126,
      "count": 144,
      "max": [
        0.9832360148429871,
        0.8254259824752808,
        1.0,
        1.0
      ],
      "min": [
        -0.6266350150108337,
        -1.0,
        -1.0,
        1.0
      ],
      "type": "VEC4"
    },
    {
      "bufferView": 1,
      "byteOffset": 5008,
      "componentType": 5126,
      "count": 144,
      "max": [
        0.9962630271911621,
        0.23513300716876984
      ],
      "min": [
        0.005038239993155003,
        0.039638299494981766
      ],
      "type": "VEC2"
    },
    {
      "bufferView": 0,
      "byteOffset": 11424,
      "componentType": 5125,
      "count": 540,
      "type": "SCALAR"
    }
  ],
  "asset": {
    "extras": {
      "author": "XAF Productions (https://sketchfab.com/xafproductions)",
      "license": "CC-BY-4.0 (http://creativecommons.org/licenses/by/4.0/)",
      "source": "https://sketchfab.com/3d-models/ragnarok-tribute-poring-ba881fd75a0a42caa3d3ef3d8230e05c",
      "title": "[Ragnarok Tribute] Poring"
    },
    "generator": "Sketchfab-12.65.0",
    "version": "2.0"
  },
  "bufferViews": [
    {
      "buffer": 0,
      "byteLength": 13584,
      "name": "floatBufferViews",
      "target": 34963
    },
    {
      "buffer": 0,
      "byteLength": 6160,
      "byteOffset": 13584,
      "byteStride": 8,
      "name": "floatBufferViews",
      "target": 34962
    },
    {
      "buffer": 0,
      "byteLength": 18480,
      "byteOffset": 19744,
      "byteStride": 12,
      "name": "floatBufferViews",
      "target": 34962
    },
    {
      "buffer": 0,
      "byteLength": 12320,
      "byteOffset": 38224,
      "byteStride": 16,
      "name": "floatBufferViews",
      "target": 34962
    }
  ],
  "buffers": [
    {
      "byteLength": 50544,
      "uri": "scene.bin"
    }
  ],
  "images": [
    {
      "uri": "textures/mat_eyes_baseColor.jpeg"
    },
    {
      "uri": "textures/mat_eyes_metallicRoughness.png"
    },
    {
      "uri": "textures/mat_eyes_normal.jpeg"
    },
    {
      "uri": "textures/mat_body_baseColor.jpeg"
    },
    {
      "uri": "textures/mat_body_metallicRoughness.png"
    },
    {
      "uri": "textures/mat_body_normal.jpeg"
    }
  ],
  "materials": [
    {
      "doubleSided": true,
      "name": "mat_eyes",
      "normalTexture": {
        "index": 2
      },
      "pbrMetallicRoughness": {
        "baseColorTexture": {
          "index": 0
        },
        "metallicRoughnessTexture": {
          "index": 1
        }
      }
    },
    {
      "doubleSided": true,
      "name": "mat_body",
      "normalTexture": {
        "index": 5
      },
      "pbrMetallicRoughness": {
        "baseColorTexture": {
          "index": 3
        },
        "metallicRoughnessTexture": {
          "index": 4
        }
      }
    }
  ],
  "meshes": [
    {
      "name": "defaultMaterial",
      "primitives": [
        {
          "attributes": {
            "NORMAL": 1,
            "POSITION": 0,
            "TANGENT": 2,
            "TEXCOORD_0": 3
          },
          "indices": 4,
          "material": 1,
          "mode": 4
        }
      ]
    },
    {
      "name": "defaultMaterial",
      "primitives": [
        {
          "attributes": {
            "NORMAL": 6,
            "POSITION": 5,
            "TANGENT": 7,
            "TEXCOORD_0": 8
          },
          "indices": 9,
          "material": 0,
          "mode": 4
        }
      ]
    },
    {
      "name": "defaultMaterial",
      "primitives": [
        {
          "attributes": {
            "NORMAL": 11,
            "POSITION": 10,
            "TANGENT": 12,
            "TEXCOORD_0": 13
          },
          "indices": 14,
          "material": 0,
          "mode": 4
        }
      ]
    }
  ],
  "nodes": [
    {
      "children": [
        1
      ],
      "matrix": [
        1.0,
        0.0,
        0.0,
        0.0,
        0.0,
        2.220446049250313e-16,
        -1.0,
        0.0,
        0.0,
        1.0,
        2.220446049250313e-16,
        0.0,
        0.0,
        0.0,
        0.0,
        1.0
      ],
      "name": "Sketchfab_model"
    },
    {
      "children": [
        2,
        4,
        6
      ],
      "matrix": [
        1.0,
        0.0,
        0.0,
        0.0,
        0.0,
        -4.371139006309477e-08,
        0.999999999999999,
        0.0,
        0.0,
        -0.999999999999999,
        -4.371139006309477e-08,
        0.0,
        0.0,
        0.0,
        0.0,
        1.0
      ],
      "name": "Collada visual scene group"
    },
    {
      "children": [
        3
      ],
      "name": "body"
    },
    {
      "mesh": 0,
      "name": "defaultMaterial"
    },
    {
      "children": [
        5
      ],
      "name": "eye_right"
    },
    {
      "mesh": 1,
      "name": "defaultMaterial"
    },
    {
      "children": [
        7
      ],
      "name": "eye_left"
    },
    {
      "mesh": 2,
      "name": "defaultMaterial"
    }
  ],
  "samplers": [
    {
      "magFilter": 9729,
      "minFilter": 9987,
      "wrapS": 10497,
      "wrapT": 10497
    }
  ],
  "scene": 0,
  "scenes": [
    {
      "name": "Sketchfab_Scene",
      "nodes": [
        0
      ]
    }
  ],
  "textures": [
    {
      "sampler": 0,
      "source": 0
    },
    {
      "sampler": 0,
      "source": 1
    },
    {
      "sampler": 0,
      "source": 2
    },
    {
      "sampler": 0,
      "source": 3
    },
    {
      "sampler": 0,
      "source": 4
    },
    {
      "sampler": 0,
      "source": 5
    }
  ]
}
